<?xml version="1.0" ?><!DOCTYPE svg  PUBLIC '-//W3C//DTD SVG 1.1//EN'  'http://www.w3.org/Graphics/SVG/1.1/DTD/svg11.dtd'><svg enable-background="new 0 0 512 512" height="512px" id="Layer_1" version="1.1" viewBox="0 0 512 512" width="512px" xml:space="preserve" xmlns="http://www.w3.org/2000/svg" xmlns:xlink="http://www.w3.org/1999/xlink"><path d="M480,512H32c-17.688,0-32-14.312-32-32V32C0,14.312,14.312,0,32,0h448c17.688,0,32,14.312,32,32v448  C512,497.688,497.688,512,480,512z M448,64H64v384h384V64z M256,192c0-35.281,29.188-64,59.438-64H352v64h-32v32h32v64h-32v96h-64  v-96h-32v-64h32V192z"/></svg>